<svg width="167" height="100" viewBox="0 0 167 100" fill="none" xmlns="http://www.w3.org/2000/svg">
<g clip-path="url(#clip0_1525_5831)">
<path fill-rule="evenodd" clip-rule="evenodd" d="M70.9885 61.9166H68.3217C68.3322 62.3082 68.4548 62.6071 68.6904 62.8151C68.926 63.0231 69.2307 63.1281 69.6057 63.1281C70.0131 63.1281 70.3706 63.0657 70.677 62.941L70.7985 63.4273C70.4361 63.5864 70.0082 63.6666 69.5147 63.6666C68.9421 63.6666 68.4867 63.4997 68.1467 63.1654C67.8077 62.8317 67.6384 62.3877 67.6384 61.8347C67.6384 61.2812 67.8014 60.8179 68.127 60.4441C68.4526 60.0704 68.8891 59.8837 69.4386 59.8837C69.9452 59.8837 70.3337 60.0495 70.6044 60.3817C70.8757 60.7146 71.0108 61.1223 71.0108 61.6032C71.0108 61.7402 71.0038 61.8447 70.9885 61.9166H70.9885ZM68.3295 61.416H70.3276C70.3276 61.1045 70.2465 60.8533 70.083 60.6628C69.9199 60.4719 69.6868 60.3769 69.3855 60.3769C69.0993 60.3769 68.8625 60.4719 68.6751 60.6628C68.4875 60.8533 68.3727 61.1045 68.3295 61.416ZM71.8618 63.584V60.9601C71.8618 60.5591 71.8519 60.2276 71.8316 59.9661H72.4467L72.5 60.5562C72.7732 60.1081 73.173 59.8837 73.7003 59.8837C73.9435 59.8837 74.16 59.9485 74.3484 60.0782C74.5374 60.2076 74.6802 60.3869 74.7789 60.6163C75.0801 60.1283 75.5004 59.8837 76.0402 59.8837C76.4046 59.8837 76.7048 60.0196 76.9401 60.2907C77.1758 60.5629 77.2936 60.9601 77.2936 61.4837V63.584H76.6022V61.5663C76.6022 61.2066 76.5325 60.9314 76.3923 60.7398C76.2516 60.5477 76.0501 60.4517 75.7893 60.4517C75.5639 60.4517 75.3639 60.5366 75.1882 60.7077C75.0118 60.8775 74.9232 61.0974 74.9232 61.3636V63.584H74.2319V61.446C74.2319 61.1392 74.1622 60.8965 74.0232 60.7184C73.8839 60.5398 73.6928 60.4517 73.4496 60.4517C73.2138 60.4517 73.0063 60.5491 72.8253 60.7436C72.6443 60.9376 72.5531 61.1646 72.5531 61.4232V63.584H71.8618ZM78.4024 65.0638V61.1546C78.4024 60.669 78.3927 60.2725 78.3722 59.9661H79.003L79.0409 60.594H79.0559C79.3621 60.1205 79.8181 59.8837 80.4231 59.8837C80.884 59.8837 81.2677 60.0542 81.5739 60.3969C81.8806 60.7398 82.0338 61.1795 82.0338 61.7152C82.0338 62.3108 81.8695 62.7842 81.5389 63.1366C81.2085 63.489 80.7954 63.6666 80.3015 63.6666C80.051 63.6666 79.8218 63.6165 79.613 63.5166C79.4038 63.4173 79.2407 63.2748 79.1244 63.0906H79.1089V65.0638H78.4024H78.4024ZM79.1089 61.506V62.089C79.1089 62.3806 79.2132 62.6249 79.4193 62.8227C79.6258 63.0208 79.8739 63.1205 80.1654 63.1205C80.5199 63.1205 80.8007 62.9958 81.0083 62.7477C81.2158 62.5003 81.3198 62.1659 81.3198 61.7454C81.3198 61.3659 81.2172 61.0534 81.0119 60.8067C80.8068 60.5605 80.5348 60.437 80.1956 60.437C79.9777 60.437 79.7774 60.498 79.5957 60.6215C79.413 60.7445 79.2863 60.8955 79.2154 61.0734C79.1447 61.2515 79.1089 61.3959 79.1089 61.506V61.506ZM86.3641 61.7378C86.3641 62.1265 86.2815 62.4665 86.117 62.7579C85.9527 63.0495 85.722 63.2734 85.4259 63.4306C85.1295 63.5878 84.8093 63.6666 84.465 63.6666C83.9281 63.6666 83.4853 63.4928 83.1351 63.1478C82.7857 62.8025 82.6115 62.3554 82.6115 61.8048C82.6115 61.2194 82.7925 60.7521 83.1532 60.4047C83.5142 60.0566 83.9686 59.8837 84.5181 59.8837C85.0651 59.8837 85.5099 60.0557 85.8513 60.4007C86.1932 60.7459 86.3641 61.1916 86.3641 61.7378V61.7378ZM83.333 61.7824C83.333 62.1785 83.4406 62.5053 83.6559 62.7631C83.8711 63.0208 84.1409 63.1502 84.465 63.1502C84.7965 63.1502 85.0738 63.0208 85.2956 62.7617C85.5171 62.5029 85.6274 62.1683 85.6274 61.7604C85.6274 61.3835 85.526 61.0622 85.3221 60.797C85.1185 60.5313 84.84 60.3993 84.4877 60.3993C84.1308 60.3993 83.8497 60.5299 83.6433 60.7932C83.4368 61.0558 83.333 61.3859 83.333 61.7824V61.7824ZM86.7364 59.9662H87.4577C87.9391 61.7205 88.1973 62.7121 88.2328 62.941H88.248C88.2757 62.7468 88.5899 61.7549 89.1898 59.9662H89.7902C90.3346 61.6426 90.6386 62.6347 90.7016 62.941H90.717C90.7877 62.5677 90.8765 62.2011 90.9827 61.8425L91.5374 59.9662H92.2363L91.0208 63.584H90.3676C89.9499 62.3184 89.7144 61.598 89.661 61.4248C89.6077 61.2515 89.5469 61.0076 89.4789 60.6913H89.4634C89.3799 61.0672 89.2697 61.4507 89.1331 61.8425L88.5211 63.584H87.8682L86.7364 59.9662H86.7364ZM95.9285 61.9166H93.2618C93.2717 62.3082 93.3948 62.6071 93.6305 62.8151C93.8661 63.0232 94.1708 63.1281 94.5456 63.1281C94.9534 63.1281 95.3108 63.0657 95.6167 62.941L95.7384 63.4273C95.3762 63.5864 94.9483 63.6666 94.4546 63.6666C93.8822 63.6666 93.4266 63.4997 93.0871 63.1654C92.7476 62.8318 92.5785 62.3877 92.5785 61.8347C92.5785 61.2812 92.7416 60.8179 93.0671 60.4442C93.3924 60.0704 93.8291 59.8838 94.3784 59.8838C94.8853 59.8838 95.2738 60.0495 95.5443 60.3817C95.8158 60.7146 95.9509 61.1223 95.9509 61.6032C95.9509 61.7402 95.9435 61.8447 95.9285 61.9166H95.9285ZM93.2695 61.4161H95.2676C95.2676 61.1045 95.1862 60.8533 95.0229 60.6629C94.8598 60.4719 94.6267 60.377 94.3253 60.377C94.0393 60.377 93.8026 60.4719 93.6153 60.6629C93.4276 60.8533 93.3125 61.1045 93.2695 61.4161ZM96.8018 63.584V61.1173C96.8018 60.6488 96.7914 60.2649 96.7716 59.9662H97.3945L97.4398 60.6913C97.534 60.437 97.6768 60.2385 97.8691 60.0965C98.0614 59.9548 98.2707 59.8838 98.496 59.8838C98.544 59.8838 98.6075 59.8893 98.6855 59.8989V60.5562C98.6174 60.5417 98.5368 60.5337 98.4427 60.5337C98.1872 60.5337 97.9681 60.6327 97.7847 60.8293C97.6008 61.0264 97.5086 61.3064 97.5086 61.6704V63.584H96.8018L96.8018 63.584ZM100.091 63.584H99.385V59.9662H100.091V63.584ZM100.19 58.867C100.19 58.9917 100.148 59.0959 100.065 59.1809C99.9813 59.2654 99.8712 59.3082 99.7344 59.3082C99.6026 59.3082 99.4948 59.2654 99.4115 59.1809C99.328 59.0959 99.286 58.9917 99.286 58.867C99.286 58.7452 99.329 58.6416 99.4142 58.5581C99.4986 58.4744 99.608 58.4332 99.7419 58.4332C99.8712 58.4332 99.9788 58.4745 100.063 58.5581C100.148 58.6416 100.19 58.7452 100.19 58.867ZM101.224 63.584V60.9601C101.224 60.5591 101.213 60.2276 101.193 59.9662H101.816L101.877 60.5793C101.993 60.3691 102.164 60.201 102.389 60.0744C102.615 59.9476 102.862 59.8838 103.13 59.8838C103.515 59.8838 103.835 60.0172 104.091 60.2848C104.347 60.5529 104.475 60.9452 104.475 61.4612V63.584H103.768V61.5357C103.768 61.194 103.693 60.929 103.544 60.7407C103.395 60.5529 103.178 60.4596 102.894 60.4596C102.641 60.4596 102.417 60.5529 102.222 60.7398C102.027 60.9262 101.93 61.1546 101.93 61.4232V63.584H101.224ZM108.851 60.9452V63.0457C108.851 63.8333 108.677 64.3819 108.33 64.6906C107.983 64.9995 107.511 65.1538 106.913 65.1538C106.381 65.1538 105.954 65.0491 105.63 64.8401L105.805 64.3092C106.131 64.5087 106.505 64.6079 106.928 64.6079C107.321 64.6079 107.623 64.5013 107.835 64.2866C108.046 64.0725 108.151 63.7583 108.151 63.3454L108.136 62.9483C107.87 63.3627 107.465 63.569 106.921 63.569C106.458 63.569 106.073 63.4002 105.765 63.0618C105.457 62.7247 105.303 62.3058 105.303 61.8048C105.303 61.2247 105.473 60.7583 105.811 60.4085C106.149 60.0581 106.551 59.8838 107.02 59.8838C107.577 59.8838 107.979 60.093 108.228 60.5118L108.258 59.9662H108.881C108.861 60.183 108.851 60.509 108.851 60.9452H108.851ZM108.144 62.0071V61.4161C108.144 61.1468 108.052 60.9138 107.867 60.717C107.682 60.5204 107.44 60.4216 107.141 60.4216C106.812 60.4216 106.542 60.5453 106.332 60.7923C106.122 61.039 106.016 61.3636 106.016 61.7672C106.016 62.1384 106.118 62.4426 106.32 62.681C106.52 62.9184 106.792 63.0381 107.133 63.0381C107.404 63.0381 107.641 62.9419 107.842 62.7508C108.044 62.5592 108.144 62.3108 108.144 62.0071V62.0071ZM111.79 59.2932L112.482 59.0912V59.9662H113.461V60.4966H112.482V62.3806C112.482 62.6321 112.524 62.8128 112.606 62.9234C112.688 63.0343 112.818 63.0906 112.999 63.0906C113.163 63.0906 113.297 63.0756 113.401 63.0457L113.431 63.5691C113.256 63.6339 113.047 63.6667 112.801 63.6667C112.127 63.6667 111.79 63.2526 111.79 62.425V60.4967H111.213V59.9662H111.79L111.79 59.2932ZM114.244 63.584V58.2617H114.951V60.5417H114.966C115.09 60.3373 115.264 60.1765 115.485 60.0595C115.706 59.9424 115.933 59.8838 116.166 59.8838C116.546 59.8838 116.862 60.0172 117.115 60.2848C117.37 60.5529 117.496 60.9452 117.496 61.4612V63.584H116.789V61.5357C116.789 61.194 116.714 60.929 116.565 60.7407C116.416 60.5529 116.199 60.4596 115.915 60.4596C115.675 60.4596 115.455 60.5477 115.254 60.726C115.052 60.9043 114.951 61.1344 114.951 61.4161V63.584H114.244ZM121.674 61.9166H119.007C119.017 62.3082 119.141 62.6071 119.376 62.8151C119.611 63.0232 119.916 63.1281 120.291 63.1281C120.699 63.1281 121.056 63.0657 121.362 62.941L121.484 63.4273C121.122 63.5864 120.694 63.6666 120.2 63.6666C119.627 63.6666 119.172 63.4997 118.833 63.1654C118.493 62.8318 118.324 62.3877 118.324 61.8347C118.324 61.2812 118.487 60.8179 118.813 60.4442C119.138 60.0704 119.575 59.8838 120.124 59.8838C120.63 59.8838 121.02 60.0495 121.29 60.3817C121.561 60.7146 121.696 61.1223 121.696 61.6032C121.696 61.7402 121.689 61.8447 121.674 61.9166V61.9166ZM119.015 61.4161H121.013C121.013 61.1045 120.932 60.8533 120.769 60.6629C120.606 60.4719 120.373 60.377 120.071 60.377C119.785 60.377 119.548 60.4719 119.361 60.6629C119.173 60.8533 119.058 61.1045 119.015 61.4161V61.4161ZM123.945 63.4121L124.112 62.8811C124.411 63.0609 124.72 63.1502 125.039 63.1502C125.267 63.1502 125.443 63.1029 125.567 63.0084C125.691 62.9134 125.753 62.7871 125.753 62.6273C125.753 62.4751 125.703 62.3504 125.6 62.2545C125.497 62.1583 125.318 62.0691 125.062 61.984C124.388 61.758 124.052 61.4161 124.052 60.9601C124.052 60.6562 124.172 60.4007 124.411 60.1939C124.651 59.9868 124.968 59.8838 125.365 59.8838C125.736 59.8838 126.05 59.9586 126.308 60.1082L126.133 60.6087C125.877 60.4643 125.614 60.3922 125.343 60.3922C125.155 60.3922 125.008 60.437 124.898 60.5275C124.79 60.6187 124.735 60.7362 124.735 60.8775C124.735 61.0053 124.782 61.1121 124.874 61.1993C124.967 61.2867 125.158 61.3807 125.449 61.4837C125.804 61.6079 126.058 61.7549 126.213 61.9254C126.367 62.0961 126.445 62.3108 126.445 62.5677C126.445 62.8966 126.318 63.1616 126.063 63.3637C125.809 63.5653 125.462 63.6666 125.024 63.6666C124.622 63.6666 124.262 63.5816 123.945 63.4121V63.4121ZM127.325 63.584V60.9601C127.325 60.5591 127.315 60.2276 127.295 59.9662H127.91L127.964 60.5562C128.237 60.1082 128.637 59.8838 129.164 59.8838C129.407 59.8838 129.624 59.9486 129.812 60.0782C130.001 60.2077 130.144 60.3869 130.243 60.6163C130.544 60.1283 130.964 59.8838 131.504 59.8838C131.868 59.8838 132.169 60.0196 132.404 60.2908C132.64 60.5629 132.757 60.9601 132.757 61.4837V63.584H132.066V61.5664C132.066 61.2066 131.996 60.9314 131.856 60.7398C131.716 60.5477 131.514 60.4517 131.253 60.4517C131.027 60.4517 130.827 60.5366 130.652 60.7077C130.476 60.8775 130.387 61.0974 130.387 61.3636V63.584H129.696V61.446C129.696 61.1392 129.627 60.8965 129.487 60.7184C129.348 60.5399 129.156 60.4517 128.913 60.4517C128.677 60.4517 128.47 60.5491 128.289 60.7436C128.108 60.9376 128.017 61.1646 128.017 61.4232V63.584H127.325ZM136.555 61.3935V62.7168C136.555 63.0756 136.576 63.3651 136.617 63.584H135.97L135.887 63.1205C135.611 63.4843 135.223 63.6666 134.725 63.6666C134.375 63.6666 134.096 63.5645 133.886 63.3613C133.675 63.1578 133.57 62.9134 133.57 62.6273C133.57 62.1885 133.764 61.8532 134.151 61.6219C134.539 61.3897 135.105 61.2741 135.849 61.2741V61.2066C135.849 60.9504 135.778 60.7493 135.635 60.6066C135.492 60.4634 135.279 60.3921 134.998 60.3921C134.624 60.3921 134.29 60.484 133.996 60.669L133.836 60.2126C134.191 59.9932 134.613 59.8837 135.105 59.8837C135.583 59.8837 135.945 60.0132 136.19 60.2725C136.434 60.5313 136.555 60.9053 136.555 61.3935L136.555 61.3935ZM135.864 62.3504V61.7525C135.272 61.7525 134.861 61.8226 134.629 61.962C134.399 62.1011 134.284 62.2934 134.284 62.5375C134.284 62.7297 134.343 62.8788 134.457 62.9868C134.573 63.0958 134.725 63.1502 134.914 63.1502C135.183 63.1502 135.408 63.068 135.591 62.9051C135.773 62.7415 135.864 62.5577 135.864 62.3504V62.3504ZM137.657 63.584V61.1173C137.657 60.6488 137.647 60.2649 137.627 59.9662H138.25L138.295 60.6913C138.389 60.437 138.532 60.2385 138.724 60.0965C138.917 59.9548 139.126 59.8838 139.351 59.8838C139.399 59.8838 139.463 59.8893 139.541 59.8989V60.5562C139.472 60.5417 139.392 60.5337 139.298 60.5337C139.042 60.5337 138.823 60.6327 138.64 60.8293C138.456 61.0264 138.363 61.3064 138.363 61.6704V63.584H137.657L137.657 63.584ZM140.567 59.2932L141.258 59.0912V59.9662H142.238V60.4966H141.258V62.3806C141.258 62.6321 141.3 62.8128 141.382 62.9234C141.465 63.0343 141.595 63.0906 141.774 63.0906C141.939 63.0906 142.073 63.0756 142.177 63.0457L142.208 63.5691C142.033 63.6339 141.823 63.6667 141.577 63.6667C140.903 63.6667 140.567 63.2526 140.567 62.425V60.4967H139.989V59.9662H140.567L140.567 59.2932ZM144.676 63.584V58.2617H145.384V60.5417H145.398C145.522 60.3373 145.696 60.1765 145.917 60.0595C146.139 59.9424 146.365 59.8838 146.598 59.8838C146.978 59.8838 147.295 60.0172 147.548 60.2848C147.802 60.5529 147.928 60.9452 147.928 61.4612V63.584H147.222V61.5357C147.222 61.194 147.147 60.929 146.998 60.7407C146.848 60.5529 146.631 60.4596 146.348 60.4596C146.107 60.4596 145.887 60.5477 145.685 60.726C145.484 60.9043 145.384 61.1344 145.384 61.4161V63.584H144.676ZM152.509 61.7378C152.509 62.1265 152.427 62.4666 152.261 62.7579C152.097 63.0495 151.867 63.2734 151.571 63.4306C151.274 63.5878 150.954 63.6666 150.61 63.6666C150.072 63.6666 149.63 63.4928 149.28 63.1478C148.931 62.8026 148.756 62.3554 148.756 61.8048C148.756 61.2194 148.937 60.7521 149.298 60.4047C149.659 60.0566 150.113 59.8838 150.663 59.8838C151.21 59.8838 151.654 60.0557 151.996 60.4007C152.338 60.746 152.509 61.1917 152.509 61.7378V61.7378ZM149.477 61.7825C149.477 62.1785 149.585 62.5053 149.801 62.7632C150.016 63.0208 150.286 63.1502 150.61 63.1502C150.942 63.1502 151.218 63.0208 151.44 62.7617C151.662 62.5029 151.772 62.1683 151.772 61.7604C151.772 61.3835 151.67 61.0623 151.466 60.797C151.263 60.5313 150.984 60.3993 150.633 60.3993C150.275 60.3993 149.995 60.5299 149.787 60.7932C149.582 61.0559 149.477 61.3859 149.477 61.7825V61.7825ZM153.367 63.584V60.9602C153.367 60.5591 153.357 60.2276 153.337 59.9662H153.952L154.006 60.5563C154.279 60.1082 154.679 59.8838 155.205 59.8838C155.449 59.8838 155.665 59.9486 155.853 60.0783C156.043 60.2077 156.186 60.387 156.284 60.6163C156.586 60.1284 157.006 59.8838 157.545 59.8838C157.91 59.8838 158.21 60.0196 158.446 60.2908C158.681 60.5629 158.799 60.9602 158.799 61.4837V63.584H158.108V61.5664C158.108 61.2066 158.038 60.9314 157.897 60.7398C157.756 60.5477 157.556 60.4518 157.294 60.4518C157.069 60.4518 156.87 60.5366 156.693 60.7078C156.517 60.8775 156.429 61.0974 156.429 61.3636V63.584H155.737V61.446C155.737 61.1392 155.668 60.8965 155.529 60.7184C155.389 60.5399 155.198 60.4518 154.954 60.4518C154.72 60.4518 154.512 60.5491 154.331 60.7436C154.15 60.9376 154.058 61.1646 154.058 61.4232V63.584H153.367ZM162.977 61.9166H160.311C160.321 62.3082 160.443 62.6071 160.679 62.8151C160.915 63.0232 161.22 63.1281 161.594 63.1281C162.001 63.1281 162.359 63.0657 162.666 62.941L162.787 63.4273C162.425 63.5864 161.997 63.6667 161.503 63.6667C160.931 63.6667 160.476 63.4997 160.136 63.1654C159.797 62.8318 159.627 62.3877 159.627 61.8347C159.627 61.2812 159.791 60.8179 160.116 60.4442C160.441 60.0704 160.878 59.8838 161.427 59.8838C161.934 59.8838 162.322 60.0495 162.593 60.3817C162.864 60.7146 163 61.1223 163 61.6032C163 61.7402 162.992 61.8447 162.977 61.9166H162.977ZM160.318 61.4161H162.316C162.316 61.1045 162.235 60.8533 162.071 60.6629C161.908 60.472 161.675 60.377 161.374 60.377C161.088 60.377 160.851 60.472 160.663 60.6629C160.477 60.8533 160.361 61.1045 160.318 61.4161V61.4161Z" fill="#989898"/>
<path fill-rule="evenodd" clip-rule="evenodd" d="M6.78761 57.2718L20.3067 43.9588L22.2755 42.0215L24.2443 43.9588L34.2239 53.779L34.2093 53.8285L34.0125 54.399L33.7891 54.9559L33.5379 55.4996L33.2614 56.0301L33.01 56.4594L22.2755 45.8962C17.5916 50.5089 12.9078 55.1214 8.224 59.7338C7.68315 58.9499 7.1808 58.1425 6.7876 57.2718H6.78761Z" fill="#E64A19"/>
<path fill-rule="evenodd" clip-rule="evenodd" d="M22.2757 33C31.7912 33 39.5512 40.6364 39.5512 50.0001C39.5512 59.3632 31.7912 67 22.2757 67C17.0781 67 12.4052 64.7195 9.23398 61.1254L9.84443 60.5225L10.2876 60.0862L10.7316 59.6488L11.1757 59.2117L11.1938 59.1941C13.8582 62.2985 17.8387 64.2765 22.2757 64.2765C30.2666 64.2765 36.7839 57.8636 36.7839 50.0001C36.7839 42.1362 30.2666 35.7232 22.2757 35.7232C14.2844 35.7232 7.76717 42.1362 7.76717 50.0001C7.76717 51.0591 7.88687 52.091 8.11124 53.0857L7.14863 54.0349L5.86383 55.3002C5.30426 53.6307 5 51.8498 5 50.0001C5 40.6364 12.76 33 22.2757 33V33Z" fill="#474747"/>
<path fill-rule="evenodd" clip-rule="evenodd" d="M151.338 47.8471V54.086H155.488L155.735 54.0841L155.973 54.0795L156.2 54.072L156.42 54.0608L156.629 54.0473L156.83 54.0304L157.023 54.0112L157.205 53.9888L157.378 53.9634L157.542 53.9359L157.697 53.905L157.841 53.8723L157.977 53.8369L158.102 53.7998L158.218 53.7602L158.321 53.7203L158.529 53.6251L158.725 53.5185L158.909 53.4014L159.083 53.2729L159.245 53.1331L159.397 52.9806L159.54 52.8161L159.672 52.6382L159.793 52.4513L159.896 52.2623L159.983 52.0697L160.054 51.8738L160.109 51.6741L160.149 51.4697L160.172 51.2598L160.18 51.0461L160.169 50.7813L160.136 50.528L160.08 50.2839L160.003 50.0495L159.904 49.8218L159.783 49.6021L159.638 49.3879L159.47 49.1816L159.282 48.9871L159.077 48.8085L158.853 48.6445L158.612 48.4965L158.351 48.3633L158.071 48.2451L157.769 48.1427L157.446 48.0561L157.337 48.0323L157.212 48.0093L157.076 47.9875L156.926 47.9673L156.764 47.9478L156.591 47.9305L156.406 47.9146L156.21 47.9006L156 47.8882L155.781 47.877L155.55 47.8678L155.307 47.8607L155.053 47.8547L154.788 47.8504L154.513 47.8476L154.225 47.8471H151.338L151.338 47.8471ZM151.338 40.0814V45.1528H154.237L154.472 45.1513L154.697 45.1475L154.914 45.1401L155.123 45.1309L155.322 45.1185L155.515 45.1036L155.698 45.0862L155.871 45.0663L156.037 45.0437L156.194 45.0185L156.341 44.991L156.479 44.9611L156.609 44.9288L156.729 44.8956L156.839 44.8595L156.939 44.8227L157.139 44.7369L157.323 44.6417L157.496 44.5365L157.658 44.4209L157.808 44.2938L157.95 44.1571L158.081 44.0079L158.202 43.8477L158.312 43.6793L158.406 43.5081L158.485 43.3319L158.55 43.1519L158.6 42.9672L158.637 42.7763L158.659 42.5789L158.666 42.3774L158.653 42.1062L158.618 41.8566L158.558 41.627L158.477 41.4152L158.374 41.2183L158.248 41.0367L158.098 40.8662L157.921 40.7057L157.831 40.6385L157.729 40.5715L157.617 40.5079L157.497 40.448L157.367 40.392L157.228 40.34L157.081 40.2923L156.924 40.2493L156.757 40.2106L156.581 40.1769L156.397 40.1484L156.202 40.1244L155.999 40.1054L155.787 40.0926L155.565 40.0843L155.332 40.0814H151.338L151.338 40.0814ZM156.361 37.5637L156.604 37.5875L156.84 37.615L157.068 37.6468L157.288 37.6834L157.502 37.724L157.708 37.7694L157.908 37.8199L158.099 37.875L158.284 37.9349L158.461 37.9999L158.634 38.0709L158.95 38.2215L159.254 38.3936L159.541 38.5862L159.811 38.7973L160.063 39.0291L160.297 39.2798L160.513 39.5486L160.707 39.8321L160.801 39.9832L160.886 40.1337L160.966 40.2861L161.04 40.4414L161.108 40.5984L161.17 40.757L161.226 40.9178L161.277 41.0807L161.32 41.2452L161.359 41.4117L161.391 41.5796L161.418 41.7493L161.438 41.9208L161.453 42.0934L161.461 42.2684L161.465 42.4475L161.454 42.7761L161.423 43.1007L161.37 43.4186L161.296 43.7307L161.201 44.0341L161.085 44.3305L160.949 44.619L160.792 44.9015L160.611 45.1737L160.413 45.4308L160.194 45.6749L159.956 45.9055L159.7 46.1213L159.566 46.2196L159.814 46.3267L160.124 46.4768L160.413 46.6326L160.683 46.7952L160.932 46.9645L161.161 47.1417L161.371 47.3264L161.566 47.5192L161.751 47.7215L161.924 47.9334L162.085 48.1542L162.234 48.3843L162.372 48.6236L162.5 48.8734L162.613 49.1301L162.71 49.393L162.792 49.6608L162.86 49.9339L162.912 50.2122L162.949 50.4955L162.972 50.7835L162.979 51.0758L162.972 51.3715L162.952 51.6619L162.917 51.947L162.867 52.2284L162.804 52.5039L162.727 52.7734L162.636 53.0379L162.531 53.2974L162.411 53.5501L162.278 53.7973L162.131 54.0373L161.97 54.2724L161.796 54.5001L161.608 54.7219L161.407 54.9373L161.193 55.1474L160.964 55.3483L160.727 55.5354L160.479 55.71L160.222 55.8722L159.957 56.0208L159.682 56.1559L159.399 56.2784L159.107 56.3879L158.805 56.4838L158.497 56.5669L158.18 56.6363L157.854 56.6937L157.521 56.7377L157.18 56.769L156.831 56.7878L156.477 56.7947H148.652V37.5117H155.034L155.313 37.5137L155.586 37.5201L155.852 37.5301L156.11 37.545L156.361 37.5638L156.361 37.5637ZM112.163 37.5143H114.896V45.2546H123.588V37.5143H126.313V56.8011H123.588V47.9065H114.896V56.8011H112.163V37.5143ZM134.209 49.6789H140.863L137.547 42.7507L134.209 49.6789ZM142.087 52.3061H132.978L130.815 56.7946H127.79L137.051 37.5117H138.05L147.18 56.7946H144.245L143.463 55.1814L142.087 52.3061Z" fill="#474747"/>
<path fill-rule="evenodd" clip-rule="evenodd" d="M52.2056 41.8828L52.6141 41.8923L53.0149 41.9196L53.408 41.9659L53.7934 42.0308L54.1703 42.1141L54.54 42.2167L54.9007 42.3378L55.253 42.4779L55.5959 42.636L55.9304 42.8132L56.2554 43.0086L56.5713 43.2225L56.8775 43.4543L57.1743 43.7043L57.4617 43.9719L57.7407 44.2586L57.9812 44.5333L58.2054 44.8132L58.4146 45.1001L58.6086 45.3941L58.7872 45.694L58.9506 46.0008L59.0983 46.3137L59.2305 46.6333L59.347 46.9586L59.4479 47.2899L59.5333 47.6268L59.6033 47.97L59.6574 48.3183L59.696 48.6726L59.7189 49.0316L59.7269 49.3973L59.7184 49.7625L59.6938 50.1239L59.6528 50.4794L59.5953 50.8306L59.521 51.1756L59.4305 51.5156L59.3234 51.8497L59.1998 52.1784L59.0594 52.5008L58.903 52.8171L58.7305 53.1268L58.5416 53.4307L58.3362 53.728L58.1154 54.0191L57.8787 54.3031L57.6256 54.5819L57.3577 54.8502L57.0795 55.1024L56.7914 55.3375L56.4936 55.5564L56.1857 55.7573L55.8686 55.9411L55.5421 56.1073L55.2062 56.2569L54.8607 56.3875L54.5067 56.5015L54.1442 56.5974L53.7733 56.6762L53.3933 56.7365L53.0057 56.7797L52.6095 56.8063L52.2056 56.8149L51.7987 56.8063L51.4006 56.7802L51.0113 56.7365L50.6303 56.6762L50.2575 56.5974L49.8938 56.5015L49.5396 56.3875L49.1943 56.2569L48.8577 56.1073L48.5307 55.9411L48.2136 55.7573L47.9064 55.5559L47.6087 55.3375L47.321 55.1024L47.0433 54.8497L46.7766 54.5819L46.5238 54.3031L46.2868 54.0191L46.0658 53.728L45.8611 53.4307L45.6722 53.1268L45.4999 52.8166L45.3438 52.4999L45.2043 52.1779L45.081 51.8495L44.9743 51.5152L44.8841 51.1751L44.8102 50.8299L44.753 50.4789L44.7123 50.1234L44.6879 49.7625L44.6802 49.3973L44.6874 49.0335L44.7106 48.6757L44.7492 48.3226L44.8035 47.9754L44.873 47.6335L44.9582 47.297L45.0595 46.9662L45.1761 46.6424L45.3078 46.3237L45.456 46.0114L45.6191 45.7049L45.7982 45.4057L45.9919 45.1124L46.2011 44.8258L46.4255 44.5456L46.6659 44.2716L46.9436 43.9841L47.231 43.7146L47.5276 43.4633L47.8343 43.2304L48.1499 43.015L48.4754 42.8184L48.8101 42.6403L49.1535 42.4812L49.5053 42.3404L49.8668 42.2186L50.2363 42.1155L50.6144 42.032L51 41.9662L51.3941 41.9196L51.7958 41.8923L52.2056 41.8828H52.2056ZM52.2056 44.3977L51.9548 44.4032L51.7102 44.4203L51.4705 44.4488L51.236 44.4889L51.0063 44.5399L50.7819 44.6026L50.5613 44.6762L50.3458 44.7617L50.1337 44.8581L49.9264 44.9659L49.7228 45.0858L49.523 45.2176L49.3268 45.3608L49.1345 45.5166L48.9458 45.684L48.7612 45.8642L48.5836 46.0523L48.4187 46.2444L48.2655 46.4405L48.1243 46.6414L47.9943 46.8466L47.876 47.056L47.7689 47.2697L47.6733 47.4889L47.5886 47.7123L47.5153 47.94L47.4535 48.1735L47.4026 48.4126L47.3625 48.6564L47.3345 48.9058L47.3174 49.161L47.3119 49.4237L47.314 49.5906L47.322 49.758L47.3346 49.923L47.3529 50.0869L47.3761 50.2495L47.4043 50.4105L47.4378 50.5696L47.4769 50.7285L47.5204 50.8852L47.5693 51.041L47.6234 51.1948L47.6828 51.3475L47.7474 51.4992L47.8172 51.6496L47.8922 51.7987L47.9711 51.9442L48.1451 52.2311L48.3316 52.4975L48.5319 52.7464L48.7464 52.9776L48.975 53.1913L49.2182 53.3889L49.4761 53.5703L49.7527 53.737L49.89 53.8106L50.0324 53.8814L50.1767 53.9469L50.3227 54.0077L50.4696 54.0637L50.6183 54.1146L50.7691 54.1611L50.9213 54.2024L51.0748 54.2385L51.2312 54.2703L51.3887 54.2974L51.548 54.3192L51.709 54.3363L51.873 54.3487L52.0383 54.3563L52.2056 54.3587L52.3745 54.3563L52.542 54.3487L52.7077 54.3363L52.8709 54.3192L53.0313 54.2974L53.1906 54.2699L53.3482 54.2385L53.5033 54.2024L53.6556 54.1611L53.8071 54.1146L53.9567 54.0633L54.1047 54.0077L54.2504 53.9469L54.3952 53.8814L54.5383 53.8106L54.6749 53.7375L54.9468 53.5713L55.2024 53.3903L55.4437 53.1928L55.6705 52.9786L55.8838 52.7468L56.0836 52.4984L56.2697 52.2311L56.4436 51.9447L56.5209 51.8003L56.5957 51.6507L56.6649 51.5004L56.7291 51.3487L56.7877 51.1958L56.8418 51.0414L56.8908 50.8852L56.9342 50.7289L56.9726 50.5703L57.0064 50.4108L57.0344 50.2493L57.058 50.0869L57.0759 49.923L57.0889 49.7575L57.0969 49.5901L57.0995 49.4234L57.0935 49.1617L57.0761 48.9065L57.0474 48.6567L57.0076 48.4131L56.9562 48.1744L56.8939 47.9408L56.8203 47.7123L56.7356 47.4891L56.6393 47.2704L56.5322 47.0562L56.4132 46.8468L56.2832 46.6416L56.1415 46.4405L55.9881 46.2444L55.823 46.052L55.6461 45.8642L55.4608 45.684L55.2721 45.5166L55.0795 45.3608L54.8836 45.2176L54.6835 45.0861L54.4799 44.9659L54.2726 44.8579L54.0612 44.7617L53.8452 44.6762L53.6252 44.6026L53.4005 44.5399L53.1718 44.4889L52.9377 44.4488L52.6988 44.4203L52.4546 44.4032L52.2056 44.3977H52.2056ZM93.1667 52.9268L92.9688 53.2673L92.7625 53.5912L92.5475 53.898L92.3228 54.1882L92.0892 54.4612L91.846 54.7172L91.5943 54.9551L91.3366 55.1764L91.0709 55.384L90.7968 55.5773L90.5147 55.7577L90.2242 55.924L89.9261 56.0769L89.6197 56.2155L89.3084 56.34L89.1455 56.3984L88.9831 56.4521L88.8178 56.5019L88.6504 56.548L88.4807 56.5907L88.3087 56.6297L88.1342 56.6648L87.9571 56.6966L87.7776 56.7242L87.5961 56.7479L87.4125 56.7683L87.2269 56.7854L87.0382 56.7982L86.848 56.8073L86.6555 56.813L86.4586 56.8149L86.0312 56.8059L85.6126 56.7793L85.2043 56.7356L84.8068 56.6738L84.42 56.5941L84.0441 56.4962L83.6794 56.3799L83.3257 56.246L82.9833 56.0935L82.6532 55.923L82.3342 55.734L82.0279 55.5274L81.7335 55.3023L81.4517 55.0601L81.1829 54.7999L80.9281 54.5244L80.6884 54.239L80.465 53.9507L80.2567 53.6568L80.0639 53.3576L79.8856 53.0536L79.723 52.744L79.5755 52.4301L79.444 52.1114L79.3272 51.7878L79.2264 51.4589L79.1409 51.126L79.0714 50.7888L79.0172 50.4469L78.9785 50.1009L78.9554 49.7509L78.9479 49.3978L78.9542 49.0634L78.974 48.7339L79.0065 48.4083L79.0526 48.087L79.1113 47.7698L79.1839 47.4571L79.2693 47.1486L79.3688 46.8449L79.4805 46.5457L79.6057 46.2515L79.744 45.9613L79.8958 45.6769L80.0596 45.3967L80.2367 45.1217L80.4269 44.8515L80.6305 44.586L80.8996 44.2624L81.1831 43.9577L81.4787 43.6725L81.7869 43.4082L82.1069 43.1644L82.4394 42.9416L82.7832 42.7398L83.1389 42.5596L83.5057 42.4L83.8838 42.2623L84.2726 42.1455L84.6727 42.051L85.0819 41.9771L85.5018 41.9246L85.9316 41.8935L86.3712 41.8828L86.8205 41.8935L87.2597 41.9256L87.689 41.9792L88.1082 42.055L88.5169 42.1516L88.9153 42.2708L89.3031 42.4116L89.6795 42.575L90.0442 42.7595L90.3977 42.9659L90.7391 43.1936L91.069 43.4429L91.3863 43.7127L91.6918 44.004L91.9845 44.3158L92.2644 44.6478L92.4548 44.8957L92.6331 45.1512L92.7996 45.4143L92.9538 45.6854L93.095 45.9628L93.2246 46.2484L93.3416 46.5412L93.4468 46.8414L93.539 47.1474L93.6194 47.4611L93.6874 47.7807L93.7434 48.1082L93.7868 48.4416L93.8187 48.7821L93.8382 49.1285L93.8554 49.8979H81.6141L81.6238 50.019L81.6549 50.2787L81.6966 50.5319L81.7483 50.7774L81.8105 51.0158L81.8827 51.2478L81.9652 51.4731L82.0571 51.6916L82.1597 51.9034L82.2722 52.1086L82.3955 52.3085L82.5284 52.5018L82.672 52.6894L82.826 52.8708L82.9915 53.0475L83.1631 53.2151L83.3395 53.3718L83.52 53.5167L83.705 53.6511L83.8947 53.7736L84.0887 53.8861L84.2871 53.9873L84.4907 54.078L84.699 54.1583L84.9123 54.2276L85.1312 54.286L85.3556 54.3349L85.5848 54.3724L85.8201 54.3995L86.0609 54.4162L86.3078 54.4214L86.5505 54.4162L86.7913 54.4L87.0295 54.3739L87.266 54.3378L87.4998 54.2908L87.7322 54.2333L87.9631 54.1654L88.1916 54.088L88.4153 53.9997L88.6325 53.9051L88.8396 53.804L89.0377 53.6971L89.2261 53.5841L89.4057 53.4654L89.5753 53.3405L89.7355 53.2108L89.8919 53.0688L90.0545 52.9036L90.2237 52.7136L90.3986 52.4994L90.5794 52.2605L90.7652 51.997L90.9558 51.7099L91.3615 51.0652L93.5446 52.214L93.1667 52.9268L93.1667 52.9268ZM90.4459 46.4507L90.3081 46.2401L90.1634 46.048L90.006 45.8678L89.8349 45.6947L89.6515 45.5296L89.4551 45.3732L89.2454 45.2247L89.0227 45.0851L88.7857 44.9538L88.5326 44.8301L88.4054 44.7741L88.2759 44.7204L88.1451 44.6708L88.0148 44.6249L87.8828 44.5827L87.7505 44.5437L87.6176 44.5091L87.4834 44.4777L87.3485 44.4499L87.2136 44.426L87.0775 44.406L86.94 44.3894L86.8024 44.3761L86.6644 44.3668L86.5249 44.3618L86.3859 44.3599L86.1533 44.3646L85.9275 44.3784L85.7064 44.4012L85.4902 44.4335L85.2783 44.4743L85.0711 44.5251L84.8681 44.584L84.6693 44.6526L84.4741 44.7293L84.2842 44.8158L84.0974 44.9112L83.9147 45.0162L83.7352 45.1302L83.5602 45.2536L83.3882 45.3864L83.2205 45.5286L83.1047 45.6357L82.9924 45.7497L82.8831 45.871L82.7772 45.9995L82.6739 46.1344L82.5745 46.2768L82.4777 46.4267L82.3843 46.5843L82.2939 46.7491L82.2072 46.9213L82.1237 47.1008L82.0439 47.2882L81.9671 47.4829L81.9292 47.5881H90.9539L90.9182 47.4765L90.8125 47.1922L90.6986 46.9267L90.576 46.6798L90.4459 46.4506V46.4507ZM69.3813 41.8828L69.7898 41.8923L70.1906 41.9196L70.5837 41.9659L70.9691 42.0308L71.3463 42.1141L71.7157 42.2167L72.0765 42.3378L72.4288 42.4779L72.7717 42.636L73.1061 42.8132L73.4311 43.0086L73.747 43.2225L74.0532 43.4543L74.35 43.7043L74.6374 43.9719L74.9164 44.2586L75.157 44.5333L75.3811 44.8132L75.5904 45.1001L75.7844 45.3941L75.9629 45.694L76.1263 46.0008L76.274 46.3137L76.4062 46.6333L76.5228 46.9586L76.6236 47.2899L76.7091 47.6268L76.779 47.97L76.8331 48.3183L76.8717 48.6726L76.8946 49.0316L76.9026 49.3973L76.8941 49.7625L76.8695 50.1239L76.8285 50.4794L76.7711 50.8306L76.6967 51.1756L76.6063 51.5156L76.4991 51.8497L76.3756 52.1784L76.2351 52.5008L76.0788 52.8171L75.9062 53.1268L75.7173 53.4307L75.5119 53.728L75.2911 54.0191L75.0544 54.3031L74.8013 54.5819L74.5334 54.8502L74.2552 55.1024L73.9671 55.3375L73.6693 55.5564L73.3614 55.7573L73.0443 55.9411L72.7178 56.1073L72.3819 56.2569L72.0364 56.3875L71.6824 56.5015L71.32 56.5974L70.9491 56.6762L70.569 56.7365L70.1815 56.7797L69.7852 56.8063L69.3813 56.8149L68.9745 56.8063L68.5763 56.7802L68.1871 56.7365L67.806 56.6762L67.4332 56.5974L67.0696 56.5015L66.7153 56.3875L66.37 56.2569L66.0334 56.1073L65.7064 55.9411L65.3894 55.7573L65.0822 55.5559L64.7844 55.3375L64.4968 55.1024L64.49 55.0962V61.9456H61.8574V49.4695L61.8559 49.3973L61.8574 49.3211V49.2824H61.8581L61.8631 49.0335L61.8863 48.6757L61.9249 48.3226L61.9792 47.9754L62.0487 47.6335L62.1339 47.297L62.2352 46.9662L62.3518 46.6423L62.4835 46.3237L62.6317 46.0114L62.7948 45.7049L62.9739 45.4057L63.1676 45.1124L63.3769 44.8258L63.6013 44.5456L63.8416 44.2716L64.1194 43.9841L64.4068 43.7145L64.7033 43.4633L65.01 43.2304L65.3256 43.015L65.6512 42.8184L65.9859 42.6403L66.3292 42.4812L66.6811 42.3404L67.0425 42.2186L67.412 42.1155L67.7901 42.0319L68.1757 41.9662L68.5698 41.9196L68.9716 41.8923L69.3813 41.8828L69.3813 41.8828ZM64.49 49.592V49.312L64.4931 49.161L64.5103 48.9058L64.5383 48.6564L64.5783 48.4126L64.6292 48.1735L64.691 47.94L64.7644 47.7123L64.8491 47.4889L64.9446 47.2697L65.0518 47.056L65.17 46.8466L65.3001 46.6414L65.4412 46.4405L65.5945 46.2444L65.7593 46.0523L65.9369 45.8642L66.1215 45.684L66.3102 45.5166L66.5025 45.3608L66.6987 45.2176L66.8985 45.0858L67.1021 44.9659L67.3092 44.8581L67.5215 44.7617L67.737 44.6762L67.9576 44.6026L68.182 44.5399L68.4117 44.4889L68.6463 44.4487L68.8859 44.4203L69.1306 44.4032L69.3813 44.3977L69.6303 44.4032L69.8745 44.4203L70.1134 44.4487L70.3475 44.4889L70.5762 44.5399L70.8009 44.6026L71.021 44.6762L71.2369 44.7617L71.4483 44.8579L71.6556 44.9659L71.8593 45.0861L72.0593 45.2176L72.2553 45.3608L72.4478 45.5166L72.6365 45.684L72.8218 45.8642L72.9987 46.052L73.1638 46.2444L73.3172 46.4405L73.4589 46.6416L73.589 46.8468L73.7079 47.0562L73.8151 47.2704L73.9113 47.4891L73.996 47.7123L74.0696 47.9407L74.1319 48.1744L74.1833 48.413L74.2231 48.6567L74.2518 48.9065L74.2692 49.1617L74.2752 49.4234L74.2726 49.5901L74.2646 49.7575L74.2516 49.923L74.2335 50.0869L74.2101 50.2493L74.1821 50.4107L74.1483 50.5703L74.11 50.7289L74.0665 50.8852L74.0176 51.0414L73.9635 51.1958L73.9049 51.3487L73.8407 51.5004L73.7714 51.6507L73.6966 51.8003L73.6194 51.9447L73.4454 52.2311L73.2594 52.4984L73.0596 52.7468L72.8462 52.9786L72.6194 53.1928L72.3781 53.3903L72.1226 53.5713L71.8506 53.7375L71.714 53.8106L71.5709 53.8814L71.4262 53.9469L71.2804 54.0077L71.1325 54.0633L70.9829 54.1146L70.8313 54.1611L70.6791 54.2024L70.5239 54.2385L70.3663 54.2698L70.2071 54.2974L70.0466 54.3192L69.8835 54.3363L69.7177 54.3487L69.5502 54.3563L69.3813 54.3587L69.2141 54.3563L69.0488 54.3487L68.8847 54.3363L68.7238 54.3192L68.5645 54.2974L68.4069 54.2703L68.2506 54.2385L68.0971 54.2024L67.9448 54.1611L67.794 54.1146L67.6454 54.0637L67.4984 54.0077L67.3524 53.9469L67.2081 53.8814L67.0657 53.8106L66.9284 53.737L66.6519 53.5703L66.3939 53.3889L66.1507 53.1913L65.9222 52.9776L65.7077 52.7463L65.5074 52.4975L65.3209 52.2311L65.1469 51.9442L65.068 51.7987L64.9929 51.6495L64.9232 51.4992L64.8585 51.3475L64.7992 51.1948L64.7451 51.0409L64.6961 50.8852L64.6527 50.7285L64.6136 50.5696L64.58 50.4105L64.5518 50.2495L64.5287 50.0869L64.5103 49.923L64.4978 49.758L64.4901 49.592H64.49ZM102.613 41.904C101.471 41.904 99.9488 42.1746 98.9701 42.7305C97.9802 43.2933 97.2633 44.0624 96.8386 45.0165C96.4204 45.9578 96.2173 47.3673 96.2173 49.3261V56.7971H98.7997V49.8432C98.7997 48.282 98.8668 47.2329 98.999 46.7247C99.1988 45.8903 99.57 45.3261 100.136 44.9925C100.722 44.6463 101.416 44.3599 102.612 44.3599C103.807 44.3599 104.488 44.6484 105.074 44.9947C105.64 45.328 106.011 45.8925 106.211 46.7269C106.343 47.235 106.41 48.2841 106.41 49.8451V56.7992H108.993V49.3282C108.993 47.3694 108.79 45.9599 108.371 45.0186C107.947 44.0645 107.23 43.2954 106.24 42.7327C105.261 42.1766 103.754 41.904 102.613 41.904V41.904Z" fill="#E64A19"/>
</g>
<defs>
<clipPath id="clip0_1525_5831">
<rect width="158" height="34" fill="white" transform="translate(5 33)"/>
</clipPath>
</defs>
</svg>
