<svg width="167" height="100" viewBox="0 0 167 100" fill="none" xmlns="http://www.w3.org/2000/svg">
<mask id="mask0_1507_5637" style="mask-type:alpha" maskUnits="userSpaceOnUse" x="8" y="34" width="151" height="33">
<path d="M8.48669 34.7598H158.004V66.1696H8.48669V34.7598Z" fill="white"/>
</mask>
<g mask="url(#mask0_1507_5637)">
<path fill-rule="evenodd" clip-rule="evenodd" d="M51.372 54.6767L50.8897 55.1633C48.1664 57.9028 44.7434 59.4751 41.4963 59.4751C36.3449 59.4751 32.6065 55.6931 32.6065 50.4834C32.6065 45.2769 36.2546 41.4965 41.282 41.4965C44.1936 41.4965 47.6412 42.8624 50.0647 44.9721L50.55 45.3986L55.3691 40.3338L54.8257 39.8673C51.1241 36.6704 45.8669 34.7578 40.7644 34.7578C35.1431 34.7578 30.382 37.3295 27.553 41.3963H18.6723L18.1533 45.7943H25.4481C25.2137 46.589 25.0515 47.4159 24.9413 48.266H14.026L13.5071 52.6624H24.9397C25.0485 53.5125 25.2091 54.3409 25.4389 55.131H9.00626L8.48584 59.529H27.5148C30.3453 63.6267 35.1676 66.1692 40.9804 66.1692C48.2796 66.1692 53.3683 62.4134 55.7519 60.1758L56.2586 59.6998L51.372 54.6767V54.6767Z" fill="#626C87"/>
<path fill-rule="evenodd" clip-rule="evenodd" d="M12.79 48.2671H9.57371L9.05444 52.6635H12.2726L12.79 48.2671ZM81.3847 54.1156C79.6257 55.7664 76.9512 57.2769 73.5986 57.2769C68.5085 57.2769 65.1542 53.6196 65.1542 49.0893C65.1542 44.6543 68.5313 40.9277 73.4808 40.9277C76.2945 40.9277 79.0622 42.0364 80.8918 43.6179L78.7806 45.8337C77.3738 44.6081 75.4035 43.8536 73.7624 43.8536C70.6669 43.8536 68.6721 46.2357 68.6721 49.1138C68.6721 52.0152 70.7128 54.3743 73.8802 54.3743C75.9669 54.3743 77.9127 53.2655 79.2491 51.9212L81.3847 54.1156V54.1156ZM98.1054 41.3992V51.2593C98.1054 55.106 95.1493 57.2775 91.0924 57.2775C87.152 57.2775 84.1269 55.106 84.1269 51.2593V41.3992H87.504V51.2593C87.504 53.2904 89.1222 54.3746 91.0924 54.3746C93.1806 54.3746 94.7283 53.2904 94.7283 51.2593V41.3992H98.1054V41.3992ZM106.008 44.2534V48.288H111.496C112.669 48.288 113.63 47.438 113.63 46.2599C113.63 45.7409 113.442 45.2682 113.09 44.9141C112.551 44.3243 111.871 44.2534 111.262 44.2534H106.008V44.2534ZM102.655 56.8039V41.3985H111.144C113.326 41.3985 114.756 42.0375 115.741 43.0738C116.539 43.9239 117.007 45.0327 117.007 46.2599C117.007 48.2403 115.789 49.7741 113.912 50.5995L117.5 56.8039H113.655L110.558 51.143H106.008V56.8039H102.655V56.8039Z" fill="#626C87"/>
</g>
<mask id="mask1_1507_5637" style="mask-type:alpha" maskUnits="userSpaceOnUse" x="8" y="34" width="151" height="33">
<path d="M8.48669 34.7598H158.004V66.1696H8.48669V34.7598Z" fill="white"/>
</mask>
<g mask="url(#mask1_1507_5637)">
<path fill-rule="evenodd" clip-rule="evenodd" d="M120.947 41.3984H124.3V56.8038H120.947V41.3984ZM127.327 41.3986H141.775V44.3231H136.238V56.8041H132.885V44.323H127.327V41.3986ZM158.003 41.3986L151.928 49.7726V56.804H148.551V49.7726L142.454 41.3986H146.627L150.356 46.7544L154.064 41.3986H158.003H158.003Z" fill="#626C87"/>
</g>
</svg>
