<svg width="167" height="100" viewBox="0 0 167 100" fill="none" xmlns="http://www.w3.org/2000/svg">
<path d="M158.804 58.7525C158.471 58.7525 150.838 58.7525 146.586 58.7525C146.817 58.1811 147.098 57.6096 147.226 56.5187C147.226 51.9473 147.226 43.8694 147.226 43.8694C147.226 43.194 146.868 42.8564 146.56 42.207C149.865 42.207 157.754 42.233 159.009 42.207C159.239 43.1681 159.367 44.1811 159.444 45.246L159.316 45.3499C157.395 44.3109 154.885 44.3109 152.759 44.5187C152.503 44.6746 152.298 44.7785 152.298 45.5317C152.298 46.207 152.298 47.1161 152.298 48.285C152.298 49.0901 152.528 48.8044 152.81 48.9603C154.577 48.9603 156.063 48.9863 157.497 48.285C157.497 49.0642 157.497 51.7655 157.497 51.7395C155.961 51.1681 154.654 51.2979 152.759 51.2979C152.477 51.3499 152.298 51.3759 152.298 51.8434C152.298 53.22 152.298 54.0772 152.298 55.6356C152.298 55.6356 152.119 56.3369 152.785 56.3629C153.783 56.4148 158.061 56.4148 160.315 55.1421L160.417 55.246C160.417 55.246 159.495 58.1291 159.316 58.5187C159.188 58.8304 159.265 58.7525 158.804 58.7525Z" fill="#E41121"/>
<path d="M158.804 58.7525C158.471 58.7525 150.838 58.7525 146.586 58.7525C146.817 58.1811 147.098 57.6096 147.226 56.5187C147.226 51.9473 147.226 43.8694 147.226 43.8694C147.226 43.194 146.868 42.8564 146.56 42.207C149.865 42.207 157.754 42.233 159.009 42.207C159.239 43.1681 159.367 44.1811 159.444 45.246L159.316 45.3499C157.395 44.3109 154.885 44.3109 152.759 44.5187C152.503 44.6746 152.298 44.7785 152.298 45.5317C152.298 46.207 152.298 47.1161 152.298 48.285C152.298 49.0901 152.528 48.8044 152.81 48.9603C154.577 48.9603 156.063 48.9863 157.497 48.285C157.497 49.0642 157.497 51.7655 157.497 51.7395C155.961 51.1681 154.654 51.2979 152.759 51.2979C152.477 51.3499 152.298 51.3759 152.298 51.8434C152.298 53.22 152.298 54.0772 152.298 55.6356C152.298 55.6356 152.119 56.3369 152.785 56.3629C153.783 56.4148 158.061 56.4148 160.315 55.1421L160.417 55.246C160.417 55.246 159.495 58.1291 159.316 58.5187C159.188 58.8304 159.265 58.7525 158.804 58.7525Z" stroke="#E41121" stroke-miterlimit="2" stroke-linecap="square"/>
<path d="M116.132 58.7531C112.418 58.7531 108.832 58.7531 104.964 58.7531C105.374 57.9479 105.63 57.2466 105.63 56.3635C105.63 54.2855 105.63 46.9349 105.63 44.6751C105.528 43.792 105.169 42.9609 104.836 42.1816C105.63 42.1816 109.395 42.1816 111.368 42.1816C110.932 42.9609 110.753 44.0258 110.778 45.0128C110.778 46.2336 110.778 53.1427 110.778 56.2336C111.291 56.6232 111.982 56.4933 112.571 56.5972C114.006 56.5193 115.363 56.2855 116.67 55.792C117.105 55.6362 117.31 55.5323 117.54 55.4544L116.49 58.6751L116.132 58.7531Z" fill="#E41121"/>
<path d="M116.132 58.7531C112.418 58.7531 108.832 58.7531 104.964 58.7531C105.374 57.9479 105.63 57.2466 105.63 56.3635C105.63 54.2855 105.63 46.9349 105.63 44.6751C105.528 43.792 105.169 42.9609 104.836 42.1816C105.63 42.1816 109.395 42.1816 111.368 42.1816C110.932 42.9609 110.753 44.0258 110.778 45.0128C110.778 46.2336 110.778 53.1427 110.778 56.2336C111.291 56.6232 111.982 56.4933 112.571 56.5972C114.006 56.5193 115.363 56.2855 116.67 55.792C117.105 55.6362 117.31 55.5323 117.54 55.4544L116.49 58.6751L116.132 58.7531Z" stroke="#E41121" stroke-miterlimit="2" stroke-linecap="square"/>
<path d="M96.9728 58.001C92.8234 59.5595 87.1628 59.5595 83.0646 57.5335C80.5545 56.027 78.7872 53.6893 78.8896 50.5984C78.9408 47.4556 80.8362 44.5465 83.6537 43.1699C86.6761 41.6374 90.6462 41.4556 94.104 42.1309C94.5138 42.3127 95.1286 42.3127 95.3847 42.7283C95.3847 43.9751 95.3847 44.7803 95.3847 46.2088C94.8724 45.7673 94.5651 45.4816 94.104 45.2478C92.5416 44.3127 90.9792 44.053 89.1094 44.2348C87.0347 44.3127 85.5491 45.8192 84.8832 47.6893C84.166 50.027 84.1148 53.1958 85.7796 55.014C87.1884 56.4945 89.3911 56.7283 91.4402 56.5725C91.85 56.5465 91.7732 56.1049 91.85 55.8712C91.85 54.6504 91.85 53.5595 91.85 52.2867C91.85 51.1439 91.5683 50.7543 91.2097 50.1309C92.5416 50.1309 96.3836 50.1569 97.5106 50.1309C97.2801 50.6244 97.1008 51.3777 97.1008 52.3906V57.7673L96.9728 58.001Z" fill="#E41121"/>
<path d="M96.9728 58.001C92.8234 59.5595 87.1628 59.5595 83.0646 57.5335C80.5545 56.027 78.7872 53.6893 78.8896 50.5984C78.9408 47.4556 80.8362 44.5465 83.6537 43.1699C86.6761 41.6374 90.6462 41.4556 94.104 42.1309C94.5138 42.3127 95.1286 42.3127 95.3847 42.7283C95.3847 43.9751 95.3847 44.7803 95.3847 46.2088C94.8724 45.7673 94.5651 45.4816 94.104 45.2478C92.5416 44.3127 90.9792 44.053 89.1094 44.2348C87.0347 44.3127 85.5491 45.8192 84.8832 47.6893C84.166 50.027 84.1148 53.1958 85.7796 55.014C87.1884 56.4945 89.3911 56.7283 91.4402 56.5725C91.85 56.5465 91.7732 56.1049 91.85 55.8712C91.85 54.6504 91.85 53.5595 91.85 52.2867C91.85 51.1439 91.5683 50.7543 91.2097 50.1309C92.5416 50.1309 96.3836 50.1569 97.5106 50.1309C97.2801 50.6244 97.1008 51.3777 97.1008 52.3906V57.7673L96.9728 58.001Z" stroke="#E41121" stroke-miterlimit="2" stroke-linecap="square"/>
<path d="M77.1223 45.4024C77.1223 49.7401 77.1223 56.4414 77.1223 58.7531C76.3539 58.7531 73.8182 58.7531 73.8182 58.7531C73.8182 58.7531 68.1576 51.6102 65.3657 48.3635C65.2376 48.3115 65.1608 48.4674 65.1352 48.5453C65.1352 51.2725 65.1352 53.792 65.1352 57.0388C65.1352 57.6881 65.4938 58.3375 65.8524 58.7531C64.2387 58.7531 62.8044 58.7531 61.1651 58.7531C61.1651 58.7531 61.6774 58.1816 61.6774 56.5972C61.6774 55.0128 61.6774 44.2596 61.6774 44.2596C61.6774 43.3245 61.1139 42.831 60.7809 42.1816C60.7809 42.1816 64.9815 42.1816 66.8257 42.1816C69.054 45.0388 71.3593 47.6881 73.5364 50.7271C73.9718 50.9349 73.8438 50.5453 73.8438 49.792L73.8694 43.87C73.7925 43.2725 73.562 42.7271 73.1778 42.1816C74.6378 42.1816 75.9697 42.1816 77.5321 42.1816C77.3528 42.857 77.1991 43.9998 77.1223 45.4024Z" fill="#E41121"/>
<path d="M77.1223 45.4024C77.1223 49.7401 77.1223 56.4414 77.1223 58.7531C76.3539 58.7531 73.8182 58.7531 73.8182 58.7531C73.8182 58.7531 68.1576 51.6102 65.3657 48.3635C65.2376 48.3115 65.1608 48.4674 65.1352 48.5453C65.1352 51.2725 65.1352 53.792 65.1352 57.0388C65.1352 57.6881 65.4938 58.3375 65.8524 58.7531C64.2387 58.7531 62.8044 58.7531 61.1651 58.7531C61.1651 58.7531 61.6774 58.1816 61.6774 56.5972C61.6774 55.0128 61.6774 44.2596 61.6774 44.2596C61.6774 43.3245 61.1139 42.831 60.7809 42.1816C60.7809 42.1816 64.9815 42.1816 66.8257 42.1816C69.054 45.0388 71.3593 47.6881 73.5364 50.7271C73.9718 50.9349 73.8438 50.5453 73.8438 49.792L73.8694 43.87C73.7925 43.2725 73.562 42.7271 73.1778 42.1816C74.6378 42.1816 75.9697 42.1816 77.5321 42.1816C77.3528 42.857 77.1991 43.9998 77.1223 45.4024Z" stroke="#E41121" stroke-miterlimit="2" stroke-linecap="square"/>
<path d="M46.6422 58.7523C45.464 58.5445 44.6956 57.5575 44.0808 56.6744L40.6486 51.8172C40.4949 51.7393 40.3157 51.9211 40.2644 52.051C40.2644 54.7523 40.0851 56.8043 41.1097 58.7523C41.1097 58.7523 36.9091 58.7523 34.9368 58.7523C35.1161 58.3367 35.1673 57.8952 35.2698 57.4276C35.2698 52.5965 35.2698 48.2069 35.2698 43.6095C35.2186 43.1419 35.0393 42.8043 34.7063 42.2069C36.8066 42.1809 38.8557 42.2069 40.8535 42.2069C39.9571 43.9991 40.2388 45.6874 40.2388 48.5445C40.29 48.7783 40.5462 48.8302 40.7255 48.7263C42.1854 47.1679 43.5686 45.5056 44.8749 43.7393C45.0541 43.3237 45.0285 42.6224 44.8749 42.2069C46.8727 42.2069 48.8193 42.2069 50.9709 42.2069C48.3583 43.8692 46.9495 46.4666 44.8749 48.6744V49.064C47.0008 52.077 49.0755 55.1159 51.3551 57.9991C51.6624 58.1289 51.8161 58.4926 52.3028 58.3627C52.6101 57.5835 52.687 57.1939 52.687 56.2588C52.687 51.9731 52.687 48.051 52.687 43.6614C52.687 43.064 52.2003 42.6484 51.9186 42.2069C54.0701 42.2069 56.3497 42.2069 58.6293 42.2069C58.2707 42.5965 57.9377 43.1419 57.9121 43.6095C57.9121 48.3367 57.9121 52.2328 57.9121 56.7783C57.9121 57.5315 58.3475 58.1289 58.7574 58.7523C58.7574 58.7523 50.5867 58.7523 46.6422 58.7523Z" fill="#E41121"/>
<path d="M46.6422 58.7523C45.464 58.5445 44.6956 57.5575 44.0808 56.6744L40.6486 51.8172C40.4949 51.7393 40.3157 51.9211 40.2644 52.051C40.2644 54.7523 40.0851 56.8043 41.1097 58.7523C41.1097 58.7523 36.9091 58.7523 34.9368 58.7523C35.1161 58.3367 35.1673 57.8952 35.2698 57.4276C35.2698 52.5965 35.2698 48.2069 35.2698 43.6095C35.2186 43.1419 35.0393 42.8043 34.7063 42.2069C36.8066 42.1809 38.8557 42.2069 40.8535 42.2069C39.9571 43.9991 40.2388 45.6874 40.2388 48.5445C40.29 48.7783 40.5462 48.8302 40.7255 48.7263C42.1854 47.1679 43.5686 45.5056 44.8749 43.7393C45.0541 43.3237 45.0285 42.6224 44.8749 42.2069C46.8727 42.2069 48.8193 42.2069 50.9709 42.2069C48.3583 43.8692 46.9495 46.4666 44.8749 48.6744V49.064C47.0008 52.077 49.0755 55.1159 51.3551 57.9991C51.6624 58.1289 51.8161 58.4926 52.3028 58.3627C52.6101 57.5835 52.687 57.1939 52.687 56.2588C52.687 51.9731 52.687 48.051 52.687 43.6614C52.687 43.064 52.2003 42.6484 51.9186 42.2069C54.0701 42.2069 56.3497 42.2069 58.6293 42.2069C58.2707 42.5965 57.9377 43.1419 57.9121 43.6095C57.9121 48.3367 57.9121 52.2328 57.9121 56.7783C57.9121 57.5315 58.3475 58.1289 58.7574 58.7523C58.7574 58.7523 50.5867 58.7523 46.6422 58.7523Z" stroke="#E41121" stroke-miterlimit="2" stroke-linecap="square"/>
<path d="M32.1961 58.7525C29.5579 58.7525 27.9187 58.7525 25.7415 58.7525C26.0233 58.285 26.0233 58.0512 26.0745 57.6356L26.2794 56.233C26.2794 52.3888 26.2794 48.207 26.2794 44.233C26.2794 43.4278 26.1769 42.7005 25.4598 42.3889C24.5121 43.5317 23.9998 44.9343 23.4619 46.3109L17.8013 58.7525H14.446C14.446 58.7525 9.93799 48.7005 7.81207 43.8953C7.55594 43.3759 6.9156 42.7525 6.71069 42.207C8.50364 42.207 13.319 42.207 14.0874 42.207C13.1141 44.1291 14.5228 45.9473 15.0095 47.6356L16.9561 52.3369L17.1866 52.5187L17.5708 51.9992C18.621 49.5317 19.6455 47.0382 20.7213 44.5707C20.9262 43.7914 20.6188 42.9083 20.4651 42.233C24.4608 42.233 27.6881 42.233 31.8631 42.233L31.4021 44.5966V57.1161C31.607 57.6875 32.0168 58.1551 32.1961 58.7525Z" fill="#E41121"/>
<path d="M32.1961 58.7525C29.5579 58.7525 27.9187 58.7525 25.7415 58.7525C26.0233 58.285 26.0233 58.0512 26.0745 57.6356L26.2794 56.233C26.2794 52.3888 26.2794 48.207 26.2794 44.233C26.2794 43.4278 26.1769 42.7005 25.4598 42.3889C24.5121 43.5317 23.9998 44.9343 23.4619 46.3109L17.8013 58.7525H14.446C14.446 58.7525 9.93799 48.7005 7.81207 43.8953C7.55594 43.3759 6.9156 42.7525 6.71069 42.207C8.50364 42.207 13.319 42.207 14.0874 42.207C13.1141 44.1291 14.5228 45.9473 15.0095 47.6356L16.9561 52.3369L17.1866 52.5187L17.5708 51.9992C18.621 49.5317 19.6455 47.0382 20.7213 44.5707C20.9262 43.7914 20.6188 42.9083 20.4651 42.233C24.4608 42.233 27.6881 42.233 31.8631 42.233L31.4021 44.5966V57.1161C31.607 57.6875 32.0168 58.1551 32.1961 58.7525Z" stroke="#E41121" stroke-miterlimit="2" stroke-linecap="square"/>
<path d="M143.179 45.4024C143.179 49.7401 143.179 56.4414 143.179 58.7531C142.411 58.7531 139.875 58.7531 139.875 58.7531C139.875 58.7531 134.215 51.6102 131.423 48.3635C131.295 48.3115 131.218 48.4674 131.192 48.5453C131.192 51.2725 131.192 53.792 131.192 57.0388C131.192 57.6881 131.551 58.3375 131.909 58.7531C130.296 58.7531 128.861 58.7531 127.222 58.7531C127.222 58.7531 127.734 58.1816 127.734 56.5972C127.734 55.0128 127.734 44.2596 127.734 44.2596C127.734 43.3245 127.171 42.831 126.838 42.1816C126.838 42.1816 131.039 42.1816 132.883 42.1816C135.111 45.0388 137.416 47.6881 139.594 50.7271C140.029 50.9349 139.901 50.5453 139.901 49.792L139.926 43.87C139.85 43.2725 139.619 42.7271 139.235 42.1816C140.695 42.1816 142.027 42.1816 143.589 42.1816C143.41 42.857 143.282 43.9998 143.179 45.4024Z" fill="#E41121"/>
<path d="M143.179 45.4024C143.179 49.7401 143.179 56.4414 143.179 58.7531C142.411 58.7531 139.875 58.7531 139.875 58.7531C139.875 58.7531 134.215 51.6102 131.423 48.3635C131.295 48.3115 131.218 48.4674 131.192 48.5453C131.192 51.2725 131.192 53.792 131.192 57.0388C131.192 57.6881 131.551 58.3375 131.909 58.7531C130.296 58.7531 128.861 58.7531 127.222 58.7531C127.222 58.7531 127.734 58.1816 127.734 56.5972C127.734 55.0128 127.734 44.2596 127.734 44.2596C127.734 43.3245 127.171 42.831 126.838 42.1816C126.838 42.1816 131.039 42.1816 132.883 42.1816C135.111 45.0388 137.416 47.6881 139.594 50.7271C140.029 50.9349 139.901 50.5453 139.901 49.792L139.926 43.87C139.85 43.2725 139.619 42.7271 139.235 42.1816C140.695 42.1816 142.027 42.1816 143.589 42.1816C143.41 42.857 143.282 43.9998 143.179 45.4024Z" stroke="#E41121" stroke-miterlimit="2" stroke-linecap="square"/>
<path d="M118.078 58.7525C118.462 57.9992 118.718 57.1681 118.718 56.259C118.718 51.9733 118.718 48.0512 118.718 43.6616C118.718 43.0642 118.232 42.6486 117.95 42.207C120.102 42.207 122.381 42.207 124.635 42.207C124.277 42.5966 123.944 43.1421 123.944 43.6096C123.944 48.3369 123.944 52.233 123.944 56.7785C123.944 57.5317 124.379 58.1291 124.789 58.7525H118.078Z" fill="#E41121"/>
<path d="M118.078 58.7525C118.462 57.9992 118.718 57.1681 118.718 56.259C118.718 51.9733 118.718 48.0512 118.718 43.6616C118.718 43.0642 118.232 42.6486 117.95 42.207C120.102 42.207 122.381 42.207 124.635 42.207C124.277 42.5966 123.944 43.1421 123.944 43.6096C123.944 48.3369 123.944 52.233 123.944 56.7785C123.944 57.5317 124.379 58.1291 124.789 58.7525H118.078Z" stroke="#E41121" stroke-miterlimit="2" stroke-linecap="square"/>
</svg>
