<svg width="167" height="100" viewBox="0 0 167 100" fill="none" xmlns="http://www.w3.org/2000/svg">
<path d="M79.554 21.8155C83.7827 21.6689 88.0389 22.306 92.0282 23.7243C98.028 25.8349 103.391 29.7033 107.316 34.7135C109.042 36.9154 110.488 39.3238 111.621 41.8832C111.821 42.3098 111.975 42.787 111.869 43.2607C111.737 44.0569 111.041 44.7145 110.241 44.7936C109.409 44.9154 108.549 44.3955 108.254 43.6117C105.999 38.2975 102.154 33.6827 97.3575 30.4879C94.3829 28.4977 91.0745 27.0611 87.5911 26.2472C83.0915 25.1976 78.4117 25.1964 73.9116 26.2437C67.5127 27.7206 61.6529 31.3979 57.5209 36.5086C55.7673 38.6655 54.3234 41.0576 53.231 43.6152C52.9951 44.2089 52.4532 44.6745 51.8208 44.7785C51.5143 44.8355 51.1984 44.8153 50.9016 44.7195C50.6048 44.6238 50.3365 44.4557 50.1207 44.2302C49.8733 43.9743 49.7036 43.6532 49.6314 43.3044C49.5592 42.9556 49.5874 42.5934 49.7127 42.26C52.7148 35.1499 58.273 29.1763 65.1056 25.6207C69.577 23.2859 74.5139 21.9853 79.5531 21.8146L79.554 21.8155Z" fill="#F49813"/>
<path d="M73.9656 43.709C73.9399 43.3393 74.2885 43.0629 74.6344 43.055C75.0831 43.0425 75.5337 43.0461 75.9833 43.0523C76.2964 43.0629 76.6609 43.2718 76.66 43.6237C76.676 47.756 76.6503 51.8882 76.6733 56.0232C78.3442 54.1614 80.0293 52.3104 81.7065 50.4539C82.0364 50.1278 82.2971 49.6337 82.8115 49.5911C83.5033 49.5626 84.1969 49.5795 84.8895 49.5804C85.1565 49.5564 85.4545 49.8017 85.3613 50.0869C85.2514 50.3073 85.0509 50.4584 84.8869 50.6335C83.0732 52.449 81.2532 54.2574 79.4502 56.081C81.1921 58.0742 82.9109 60.087 84.6447 62.0883C84.8682 62.3727 85.1476 62.6135 85.3347 62.9281C85.4722 63.1734 85.2443 63.4719 84.9818 63.4835C84.4053 63.5155 83.8288 63.4835 83.2514 63.4968C82.9508 63.4897 82.6262 63.5342 82.3539 63.3786C82.0665 63.2133 81.8927 62.9183 81.6861 62.6695C80.0134 60.5589 78.3513 58.4395 76.6724 56.3324C76.6547 58.4101 76.6671 60.4878 76.6653 62.5646C76.6591 62.8046 76.7079 63.0934 76.4995 63.2676C76.1678 63.5884 75.6747 63.4764 75.2605 63.4968C74.8933 63.4844 74.4641 63.5653 74.1652 63.2933C73.9993 63.1636 73.9559 62.9423 73.9612 62.7459C73.9665 56.3991 73.9603 50.054 73.9656 43.709V43.709ZM66.3437 49.5457C67.1827 49.2756 68.1281 49.224 68.9503 49.5804C69.2385 49.7155 69.5737 50.0052 69.4434 50.3615C69.3112 50.8094 69.1995 51.2617 69.0425 51.7016C68.9263 52.0171 68.5609 52.1344 68.2532 52.0722C67.5614 51.954 66.882 51.7247 66.1725 51.7478C65.6767 51.7363 65.22 52.002 64.8812 52.3468C64.3349 52.8827 64.0519 53.6318 63.9251 54.3747C63.8249 54.9115 63.8542 55.4589 63.8488 56.0019V62.8419C63.8808 63.2169 63.4941 63.4719 63.1562 63.4844C62.6923 63.4906 62.2294 63.4968 61.7655 63.4808C61.4312 63.4631 61.0542 63.2187 61.0977 62.841C61.0959 58.6199 61.0933 54.3996 61.0977 50.1785C61.0702 49.759 61.534 49.5306 61.8977 49.5697C62.3544 49.5999 62.9788 49.4275 63.275 49.8888C63.5012 50.422 63.6076 50.9996 63.8196 51.5381C64.4564 50.6628 65.3007 49.8905 66.3437 49.5457V49.5457ZM19.0536 49.8674C19.1822 49.7199 19.333 49.5591 19.5476 49.5742C20.1773 49.5688 20.8079 49.5546 21.4367 49.5831C21.756 49.5928 21.9759 49.8745 22.022 50.1714C22.6411 52.6916 23.2486 55.2163 23.8641 57.7365C24.045 58.515 24.265 59.2863 24.382 60.0781C24.5036 60.7891 24.5275 61.5116 24.6437 62.2243C24.8024 61.2067 24.9452 60.183 25.2184 59.1895C26.0237 56.1805 26.8281 53.1724 27.6343 50.1642C27.6964 49.8212 28.0192 49.5777 28.3615 49.5777C29.0622 49.56 29.7628 49.5715 30.4635 49.5715C30.8395 49.5537 31.2413 49.7741 31.3318 50.1589C31.9331 52.353 32.5273 54.5498 33.1259 56.7457C33.4896 58.1675 33.9658 59.5654 34.1716 61.0237C34.2283 61.4254 34.2833 61.8288 34.3667 62.2278C34.592 59.9351 35.1809 57.7054 35.6651 55.4616C36.0642 53.6753 36.4545 51.8882 36.8598 50.1029C36.9192 49.7439 37.2979 49.5635 37.6314 49.5733C38.1972 49.5697 38.7648 49.5537 39.3307 49.5822C39.6659 49.5919 39.8592 49.9643 39.7404 50.2647C38.6052 54.4654 37.4726 58.6696 36.3356 62.8712C36.3057 63.0365 36.2203 63.1867 36.0935 63.2966C35.9667 63.4065 35.8061 63.4697 35.6385 63.4755C34.7605 63.5048 33.8816 63.4835 33.0044 63.4879C32.6896 63.5075 32.357 63.3386 32.3011 63.0063C31.5153 60.1181 30.7455 57.2229 29.9668 54.3321C29.6857 53.3261 29.5713 52.2837 29.4524 51.2484C29.3087 52.17 29.2369 53.1057 28.9912 54.0113C28.1948 56.9883 27.3939 59.9662 26.5949 62.9441C26.5053 63.4266 25.9545 63.5217 25.5457 63.4906C24.7297 63.4764 23.9138 63.5102 23.0978 63.4764C22.8069 63.4764 22.5834 63.2507 22.5302 62.9752C21.3861 58.7905 20.2447 54.604 19.0979 50.422C19.058 50.2389 19.0625 50.0523 19.0545 49.8683L19.0536 49.8674ZM121.987 49.5822C122.583 49.5708 123.18 49.5708 123.777 49.5822C124.139 49.5875 124.48 49.8363 124.595 50.1829C125.624 52.8782 126.645 55.5771 127.672 58.2742C127.888 58.8207 128.038 59.3912 128.134 59.9715C128.559 58.3719 129.125 56.8159 129.622 55.2376C130.174 53.5314 130.728 51.8243 131.283 50.1171C131.365 49.8203 131.648 49.6177 131.948 49.5928C132.435 49.5564 132.924 49.5875 133.411 49.5751C133.697 49.5777 134.036 49.5448 134.254 49.7741C134.394 49.8932 134.364 50.0914 134.305 50.2469C132.661 54.947 131.021 59.6489 129.379 64.3508C129.093 65.1337 128.874 65.954 128.415 66.6587C127.756 67.7313 126.687 68.5035 125.513 68.9212C125.102 69.0492 124.679 69.3309 124.237 69.1727C123.924 69.0927 123.805 68.7666 123.637 68.5266C123.517 68.3089 123.296 68.1081 123.342 67.8371C123.364 67.5687 123.579 67.3501 123.831 67.2781C124.326 67.1075 124.83 66.9182 125.231 66.568C126.206 65.7416 126.809 64.5197 127.038 63.2764C126.882 62.7237 126.595 62.2163 126.386 61.6822C124.817 58.0298 123.249 54.3774 121.677 50.7259C121.583 50.4877 121.443 50.2593 121.416 50.0007C121.42 49.7164 121.746 49.5911 121.987 49.5831V49.5822ZM48.8674 51.3488C48.0116 51.5088 47.2311 52.042 46.7974 52.8018C46.0719 54.0344 45.9877 55.5211 46.0205 56.919C46.0728 58.1844 46.275 59.5343 47.0812 60.5571C47.6816 61.3267 48.6688 61.7124 49.6293 61.6982C50.5525 61.7275 51.5201 61.4138 52.1463 60.7109C52.9454 59.8347 53.2017 58.619 53.3125 57.4726C53.3604 56.3458 53.3835 55.1994 53.0917 54.1001C52.8602 53.1706 52.3707 52.2428 51.5228 51.7416C50.7343 51.2573 49.7605 51.212 48.8674 51.3488ZM49.2284 49.3449C50.776 49.2489 52.3981 49.5715 53.6753 50.4904C54.8185 51.3044 55.5945 52.5601 55.9573 53.9064C56.3883 55.5131 56.3865 57.2282 55.9954 58.8429C55.6273 60.3323 54.7662 61.7355 53.4677 62.5824C52.0789 63.5048 50.3352 63.7448 48.706 63.5484C47.318 63.3769 45.9655 62.7663 44.9988 61.7417C43.8636 60.55 43.2995 58.9069 43.1824 57.2833C43.0396 55.4829 43.3155 53.5776 44.3141 52.0393C45.0538 50.8823 46.2298 50.0318 47.5406 49.6444C48.0878 49.4729 48.6581 49.3929 49.2284 49.3449V49.3449ZM94.8884 51.2751C94.0396 51.3302 93.221 51.8198 92.8414 52.5956C92.1017 54.0308 92.0867 55.7015 92.123 57.2789C92.1824 58.3106 92.2942 59.3761 92.774 60.3065C93.0977 60.9339 93.6875 61.4289 94.3837 61.5809C95.4498 61.8377 96.7038 61.62 97.4612 60.7766C98.1912 59.944 98.4315 58.8118 98.5433 57.7401C98.6204 56.5191 98.6248 55.2723 98.3224 54.077C98.1149 53.2772 97.7628 52.4792 97.1304 51.9238C96.5247 51.3888 95.6804 51.1826 94.8884 51.2751V51.2751ZM98.5397 43.5322C98.5202 43.2087 98.8501 43.0016 99.1375 42.9767C99.5978 42.951 100.058 42.9634 100.519 42.9679C100.87 42.9652 101.262 43.2265 101.212 43.6166C101.212 49.9927 101.213 56.3671 101.211 62.7406C101.235 63.0703 100.911 63.3262 100.608 63.3449C100.242 63.3653 99.8745 63.3653 99.51 63.3395C99.2528 63.3235 99.0027 63.1582 98.9157 62.9112C98.7774 62.4971 98.7056 62.067 98.6009 61.6457C98.0927 62.3362 97.4382 62.9467 96.624 63.2507C95.4631 63.6781 94.1709 63.6861 92.9789 63.3937C92.3812 63.2447 91.8214 62.972 91.3353 62.593C90.8492 62.214 90.4478 61.7373 90.1568 61.1934C89.2495 59.5352 89.1422 57.5846 89.1989 55.7344C89.2309 54.1534 89.5324 52.4863 90.5594 51.2315C91.3346 50.1687 92.6055 49.5582 93.8879 49.3991C95.0826 49.224 96.3766 49.4258 97.3646 50.15C97.8328 50.4788 98.2071 50.9214 98.5415 51.3835C98.5317 48.7673 98.5344 46.1493 98.5397 43.5322V43.5322ZM111.388 51.355C110.962 51.4421 110.55 51.6128 110.206 51.8802C109.518 52.417 109.175 53.2701 108.993 54.0992C108.727 55.4136 108.731 56.7714 108.868 58.1C108.997 59.0775 109.241 60.119 109.956 60.8415C110.538 61.4538 111.416 61.6777 112.237 61.6377C113.12 61.6697 114.039 61.34 114.609 60.6451C115.322 59.7813 115.523 58.6332 115.627 57.5526C115.692 56.28 115.693 54.9772 115.337 53.7429C115.111 52.9733 114.699 52.2082 114.004 51.7701C113.238 51.2662 112.27 51.22 111.387 51.355H111.388ZM110.206 49.6097C111.439 49.2728 112.735 49.2465 113.981 49.5333C115.131 49.7999 116.208 50.4468 116.915 51.4048C117.662 52.3877 118.04 53.6051 118.197 54.819C118.333 55.7548 118.294 56.703 118.294 57.645C118.294 59.3468 118.294 61.0486 118.291 62.7495C118.309 62.9565 118.178 63.1405 118.01 63.2489C117.725 63.424 117.371 63.3466 117.054 63.3662C116.697 63.3635 116.229 63.3955 116.034 63.0232C115.845 62.5868 115.806 62.099 115.684 61.6395C115.205 62.2216 114.71 62.8223 114.019 63.1591C112.964 63.6817 111.732 63.6506 110.604 63.4302C109.224 63.1565 107.952 62.3389 107.172 61.1605C106.242 59.7884 105.905 58.0947 105.918 56.4569C105.906 54.8608 106.218 53.2115 107.104 51.8607C107.812 50.757 108.948 49.9581 110.206 49.6097V49.6097ZM134.891 60.063C134.19 60.3208 133.749 61.1303 133.928 61.8617C134.11 62.7201 135.107 63.3067 135.938 62.9885C136.705 62.7539 137.189 61.8777 136.951 61.1054C136.742 60.2363 135.713 59.7227 134.891 60.063V60.063ZM134.988 59.696C135.403 59.6303 135.855 59.6249 136.241 59.8187C136.897 60.1172 137.37 60.8237 137.299 61.5587C137.354 62.4358 136.618 63.2196 135.778 63.3609C134.832 63.5617 133.814 62.8757 133.623 61.9301C133.373 60.9792 134.033 59.9084 134.988 59.696V59.696Z" fill="#3069B5"/>
<path d="M135.184 60.763C135.182 60.9621 135.181 61.1612 135.184 61.3611C135.357 61.3504 135.536 61.3611 135.709 61.3131C135.87 61.2465 135.854 61.0403 135.81 60.9026C135.643 60.739 135.395 60.7817 135.184 60.763V60.763ZM134.658 60.4387C135.16 60.4671 135.724 60.3258 136.176 60.6066C136.541 60.8812 136.364 61.4775 135.952 61.6055C136.071 61.9201 136.236 62.2124 136.387 62.5119L135.823 62.5226C135.688 62.2443 135.555 61.9647 135.426 61.6837L135.184 61.6792C135.182 61.9592 135.182 62.2391 135.182 62.519L134.655 62.5128C134.657 61.8214 134.655 61.1292 134.658 60.4387V60.4387Z" fill="#3069B5"/>
</svg>
